<?xml version="1.0"?><svg xmlns="http://www.w3.org/2000/svg" xmlns:xlink="http://www.w3.org/1999/xlink" version="1.1" viewBox="0 0 24 24" style="enable-background:new 0 0 24 24;" xml:space="preserve"><style type="text/css">
	.st0{opacity:0.2;fill:none;stroke:#000000;stroke-width:0.05;stroke-miterlimit:10;}
</style><g id="grid_system"/><g id="Layer_2"><path d="M16.11084,3.08398l-1.30859,0.30908c-0.21191,0.03809-0.4082,0.09131-0.61523,0.14893l-0.08398,0.02344   c-3.64355,0.88525-7.13721,2.229-10.37549,3.98975c-1.20752,0.64307-1.87402,1.93604-1.69775,3.29346   c0.17725,1.36328,1.1582,2.44824,2.50488,2.76465l3.42139,0.78076c0.14496,0.03308,0.27094,0.10504,0.37665,0.19855   c0.0119,0.01324,0.01587,0.0304,0.02863,0.04315c0.01282,0.01282,0.03015,0.01691,0.04346,0.02887   c0.09369,0.10571,0.16565,0.23157,0.19873,0.3764l0.78027,3.4209C9.72412,19.95605,11.03809,21,12.5791,21   c1.21191,0,2.28174-0.646,2.85986-1.72412c1.87598-3.46631,3.27441-7.17871,4.1543-11.02881l0.32031-1.36035   c0.00049-0.00146,0.00098-0.00293,0.00146-0.00439c0.24658-1.0708-0.07031-2.17432-0.84766-2.95215   C18.28955,3.15234,17.18457,2.83398,16.11084,3.08398z M17.96631,6.43164l-0.3208,1.36328   c-0.8418,3.67969-2.17578,7.22217-3.96729,10.53223C13.36426,18.9126,12.85498,19,12.5791,19   c-0.5083,0-1.09082-0.30371-1.24512-0.98242l-0.78076-3.42188c-0.04352-0.19055-0.12585-0.36127-0.20355-0.53412l2.35638-2.35602   c0.39062-0.39014,0.39062-1.02344,0-1.41406s-1.02344-0.39062-1.41406,0l-2.35675,2.35638   c-0.17444-0.07849-0.34711-0.16107-0.53973-0.20502l-3.40869-0.77783c-0.79834-0.1875-0.94678-0.86963-0.97363-1.07422   c-0.02588-0.20215-0.05664-0.8916,0.66211-1.27441c3.09375-1.68213,6.4248-2.96289,9.92725-3.81445l0.11865-0.03271   c0.14648-0.04053,0.28516-0.08057,0.4873-0.11865l1.35596-0.31885C16.65576,5.01074,16.74658,5,16.83594,5   c0.3042,0,0.59229,0.11963,0.81689,0.34424C17.94385,5.63525,18.05811,6.03174,17.96631,6.43164z"/></g></svg>