<?xml version="1.0"?><svg xmlns="http://www.w3.org/2000/svg" xmlns:xlink="http://www.w3.org/1999/xlink" version="1.1" viewBox="0 0 24 24" style="enable-background:new 0 0 24 24;" xml:space="preserve"><style type="text/css">
	.st0{opacity:0.2;fill:none;stroke:#000000;stroke-width:0.05;stroke-miterlimit:10;}
</style><g id="grid_system"/><g id="Layer_2"><path d="M20.1499,15.46582c-0.76758-1.74512-2.15137-3.12891-3.896-3.89551c-1.24463-0.54785-2.66064-0.29004-3.60645,0.65527   c-0.1377,0.1377-0.32422,0.21191-0.5249,0.20898c-0.83154-0.01074-1.51709-0.69629-1.52832-1.52832   c-0.00293-0.20117,0.07129-0.3877,0.20947-0.52539c0.94531-0.94629,1.20215-2.36133,0.65527-3.60547   c-0.7666-1.74414-2.1499-3.12793-3.896-3.89648C6.31836,2.3291,4.90234,2.58887,3.95703,3.53516   C2.08398,5.4082,1.49365,8.25,2.4541,10.77344c1.71631,4.51367,5.28906,8.08594,9.80078,9.80078   c0.8042,0.30566,1.64014,0.4541,2.4668,0.4541c1.76904,0,3.49561-0.68066,4.77246-1.95703   C20.43994,18.12598,20.69727,16.71094,20.1499,15.46582z M18.08008,17.65723c-1.31689,1.31738-3.32373,1.72754-5.11426,1.04785   c-3.97852-1.5127-7.12891-4.66211-8.64258-8.64258C3.64258,8.27344,4.0542,6.2666,5.37109,4.94922   c0.23145-0.23145,0.53955-0.35254,0.85938-0.35254c0.17578,0,0.35547,0.03711,0.52734,0.1123   c1.28613,0.56641,2.30518,1.58594,2.87012,2.87109C9.84082,8.06445,9.74707,8.6084,9.38916,8.9668   c-0.51514,0.51465-0.80469,1.23145-0.79492,1.9668c0.02588,1.9043,1.59668,3.47461,3.5,3.50098   c0.72852-0.00293,1.45264-0.2793,1.96777-0.79492c0.35938-0.35742,0.90332-0.4502,1.38721-0.23926   c1.28516,0.56543,2.3042,1.58496,2.86963,2.87012C18.53174,16.75488,18.43848,17.29883,18.08008,17.65723z"/></g></svg>