<?xml version="1.0"?><svg xmlns="http://www.w3.org/2000/svg" xmlns:xlink="http://www.w3.org/1999/xlink" version="1.1" viewBox="0 0 24 24" style="enable-background:new 0 0 24 24;" xml:space="preserve"><style type="text/css">
	.st0{opacity:0.2;fill:none;stroke:#000000;stroke-width:0.05;stroke-miterlimit:10;}
</style><g id="grid_system"/><g id="Layer_2"><path d="M20.30762,6.19287c-0.37402-1.24805-1.41309-2.20215-2.71582-2.49023C13.27832,2.76904,8.71973,2.76807,4.4043,3.70361   C3.10547,3.99072,2.06641,4.94482,1.69141,6.19727C0.7666,9.33154,0.76465,12.646,1.68555,15.78418   c0.00684,0.021,0.02637,0.08203,0.03418,0.10254c0.00195,0.00488,0.00391,0.00977,0.00488,0.01514l0.31445,0.80908   c0.74023,1.90771,1.99707,3.56592,3.63574,4.79541c0.41602,0.31201,0.91113,0.47314,1.41211,0.47314   c0.28418,0,0.57031-0.05176,0.8457-0.15674c0.76172-0.29053,1.31152-0.94141,1.47266-1.74023l0.22461-1.11475   c2.68164,0.12402,5.39844-0.10889,7.96582-0.67139c1.29883-0.28711,2.33789-1.24121,2.71387-2.49707   C20.76758,14.22559,21,12.61084,21,11S20.76758,7.77441,20.30762,6.19287z M18.3916,15.23291   c-0.16602,0.5542-0.63672,0.97998-1.22559,1.10986c-2.56348,0.56201-5.27051,0.76318-7.97363,0.59912   c-0.63672-0.04736-1.28125,0.42676-1.41406,1.08691l-0.33398,1.65918c-0.03418,0.16992-0.15527,0.23975-0.22461,0.26611   c-0.07031,0.02686-0.20801,0.05469-0.34473-0.04785c-1.33887-1.00439-2.36621-2.35938-2.9707-3.91943l-0.30371-0.78125   c-0.80859-2.7627-0.80566-5.68164,0.00781-8.43848c0.16602-0.5542,0.63672-0.97998,1.22363-1.10938   c4.03613-0.875,8.30176-0.87402,12.33203-0.00098c0.59082,0.13037,1.06152,0.55615,1.22559,1.10254   C18.79492,8.15186,19,9.57861,19,11S18.79492,13.84814,18.3916,15.23291z"/><path d="M14.73535,12.42334c-0.80957,0.26904-2.11621,0.59424-3.74805,0.61523c-1.60645,0.00879-2.87988-0.30273-3.67676-0.57617   c-0.51953-0.17871-1.09082,0.09717-1.27051,0.61963s0.09766,1.09131,0.62012,1.271   c0.91797,0.31641,2.37793,0.68652,4.18262,0.68652c0.05664,0,0.11328-0.00049,0.16992-0.00098   c1.88965-0.0249,3.41016-0.40381,4.35352-0.71777c0.52441-0.17432,0.80762-0.74023,0.63379-1.26416   S15.25977,12.24658,14.73535,12.42334z"/><path d="M9,11c0.55273,0,1-0.44775,1-1V8c0-0.55225-0.44727-1-1-1S8,7.44775,8,8v2C8,10.55225,8.44727,11,9,11z"/><path d="M13,11c0.55273,0,1-0.44775,1-1V8c0-0.55225-0.44727-1-1-1s-1,0.44775-1,1v2C12,10.55225,12.44727,11,13,11z"/></g></svg>